<svg width="333" height="399" viewBox="0 0 333 399" fill="none" xmlns="http://www.w3.org/2000/svg">
<path d="M109.39 399C150.542 399 183.902 397.384 183.902 395.391C183.902 393.399 150.542 391.783 109.39 391.783C68.2382 391.783 34.8779 393.399 34.8779 395.391C34.8779 397.384 68.2382 399 109.39 399Z" fill="white"/>
<path d="M98.1387 297.612L112.281 282.366C112.741 281.869 113.314 281.511 113.942 281.326C114.57 281.141 115.232 281.136 115.862 281.311C116.493 281.486 117.07 281.835 117.538 282.324C118.005 282.813 118.345 283.425 118.526 284.1V284.1C118.712 284.794 118.722 285.528 118.555 286.227C118.388 286.927 118.05 287.565 117.576 288.075L108.548 297.809L121.149 308.637L121.142 308.648C121.205 308.644 121.267 308.637 121.331 308.637C122.089 308.637 122.83 308.879 123.46 309.332C124.091 309.786 124.582 310.43 124.873 311.185C125.164 311.939 125.241 312.769 125.095 313.571C124.948 314.373 124.585 315.109 124.05 315.688C123.516 316.268 122.834 316.663 122.091 316.825C121.348 316.986 120.578 316.907 119.877 316.597C119.176 316.287 118.575 315.76 118.152 315.082C117.728 314.405 117.501 313.607 117.497 312.79L98.1387 297.612Z" fill="#A0616A"/>
<path d="M139.902 391.78L144.097 390.092L140.053 371.844L133.862 374.336L139.902 391.78Z" fill="#A0616A"/>
<path d="M153.642 391.035L140.458 396.341L138.556 390.849L146.826 387.521C148.13 386.996 149.573 387.051 150.838 387.674C152.104 388.296 153.088 389.435 153.574 390.84L153.642 391.035V391.035Z" fill="#4B43E8"/>
<path d="M102.162 390.329L106.64 390.329L108.77 371.708L102.162 371.709L102.162 390.329Z" fill="#A0616A"/>
<path d="M115.276 394.811L101.204 394.812L101.203 388.95L110.031 388.949C111.422 388.949 112.756 389.545 113.74 390.605C114.724 391.666 115.276 393.104 115.276 394.603L115.276 394.811V394.811Z" fill="#4B43E8"/>
<path d="M113.478 303.125C113.478 303.125 124.436 301.156 128.088 305.881L143.611 383.256L134.845 384.437C134.845 384.437 131.923 344.273 117.313 333.642C117.313 333.642 106.722 369.08 108.548 385.225L100.878 384.437C100.878 384.437 98.5038 316.513 113.478 303.125Z" fill="#D68813"/>
<path d="M136.245 331.053L137.502 329.275L137.296 329.105L138.143 327.906C138.342 327.626 138.487 327.306 138.57 326.965C138.654 326.624 138.674 326.269 138.63 325.92C138.587 325.57 138.48 325.234 138.315 324.929C138.151 324.624 137.932 324.357 137.672 324.144L137.672 324.144L134.623 321.639C134.363 321.425 134.066 321.269 133.75 321.179C133.434 321.088 133.105 321.066 132.78 321.113C132.456 321.161 132.144 321.276 131.861 321.453C131.579 321.631 131.331 321.866 131.133 322.147L131.133 322.147L123.939 332.325C123.741 332.605 123.596 332.925 123.512 333.266C123.428 333.607 123.408 333.962 123.452 334.311C123.495 334.661 123.603 334.997 123.767 335.302C123.931 335.607 124.15 335.874 124.41 336.087L124.41 336.087L127.459 338.592C127.984 339.024 128.647 339.213 129.302 339.118C129.956 339.022 130.549 338.651 130.949 338.084L130.949 338.084L134.31 333.329L134.517 333.498L135.774 331.72L135.567 331.55L136.039 330.884L136.245 331.053Z" fill="#E6E6E6"/>
<path d="M133.791 327.622C134.507 327.622 135.087 326.997 135.087 326.225C135.087 325.453 134.507 324.828 133.791 324.828C133.075 324.828 132.495 325.453 132.495 326.225C132.495 326.997 133.075 327.622 133.791 327.622Z" fill="white"/>
<path d="M116.13 272.44C120.909 272.44 124.783 268.264 124.783 263.111C124.783 257.959 120.909 253.783 116.13 253.783C111.352 253.783 107.478 257.959 107.478 263.111C107.478 268.264 111.352 272.44 116.13 272.44Z" fill="#A0616A"/>
<path d="M107.635 280.68C107.635 280.68 115.67 270.442 122.244 278.711C126.474 284.032 128.712 290.862 128.519 297.866L128.271 306.865L113.113 304.306L107.635 280.68Z" fill="#CCCCCC"/>
<path d="M119.118 278.052C118.547 278.06 117.984 278.202 117.469 278.468C116.954 278.735 116.499 279.119 116.136 279.594C115.772 280.069 115.509 280.624 115.365 281.22C115.221 281.816 115.199 282.438 115.301 283.044L123.593 332.524L123.547 332.592C123.216 333.078 122.99 333.638 122.886 334.23C122.781 334.822 122.8 335.432 122.941 336.015C123.083 336.598 123.343 337.14 123.704 337.601C124.064 338.062 124.515 338.43 125.025 338.68C125.853 339.074 126.784 339.137 127.652 338.859C128.519 338.581 129.267 337.979 129.761 337.161C130.251 336.336 130.446 335.347 130.31 334.379C130.174 333.41 129.715 332.528 129.02 331.898L128.966 331.848L123.07 281.757C122.95 280.733 122.488 279.792 121.77 279.109C121.052 278.427 120.127 278.051 119.17 278.051C119.153 278.051 119.135 278.051 119.118 278.052Z" fill="#A0616A"/>
<path d="M117.534 264.725L121.251 260.003C122.209 258.787 123.211 257.461 123.347 255.872C123.495 254.129 122.512 252.436 121.169 251.455C119.825 250.474 118.175 250.105 116.556 249.969C113.556 249.718 110.398 250.253 107.931 252.112C105.464 253.971 103.85 257.328 104.451 260.508C104.925 263.011 106.67 265.41 105.992 267.858C105.249 270.537 102.206 271.359 99.7204 272.157C95.549 273.498 91.5659 276.138 89.3798 280.196C87.1937 284.254 87.2032 289.85 90.1174 293.336C92.0043 295.593 94.8504 296.735 97.6645 296.906C100.479 297.078 103.28 296.364 105.948 295.386C108.406 294.486 110.838 293.329 112.773 291.463C114.708 289.598 116.102 286.928 116.041 284.131C115.984 281.464 114.659 279.035 114.115 276.434C113.686 274.255 113.798 271.993 114.441 269.877C115.085 267.76 116.235 265.864 117.777 264.382" fill="#100E24"/>
<path d="M111.626 249.307L113.968 248.812C114.161 248.771 114.36 248.771 114.554 248.813C114.747 248.855 114.931 248.938 115.095 249.056C115.258 249.175 115.399 249.327 115.508 249.504C115.617 249.682 115.693 249.88 115.731 250.089L118.969 261.804L113.679 262.923L110.441 251.208C110.364 250.786 110.446 250.349 110.668 249.993C110.891 249.636 111.235 249.39 111.626 249.307Z" fill="#536DFE"/>
<path d="M116.779 268.451C119.131 268.451 121.038 266.395 121.038 263.859C121.038 261.323 119.131 259.267 116.779 259.267C114.426 259.267 112.52 261.323 112.52 263.859C112.52 266.395 114.426 268.451 116.779 268.451Z" fill="white"/>
<path d="M116.779 266.41C118.086 266.41 119.145 265.268 119.145 263.859C119.145 262.45 118.086 261.308 116.779 261.308C115.472 261.308 114.413 262.45 114.413 263.859C114.413 265.268 115.472 266.41 116.779 266.41Z" fill="#536DFE"/>
<path d="M280.718 205.631C292.508 193.056 325.824 159.209 312.461 100.315C299.097 41.4208 304.107 9.14575 213.889 37.4397C123.672 65.7336 146.998 -16.0044 106.965 2.85823C66.932 21.7208 40.1367 -22.2919 31.7837 37.4397C23.4302 97.1709 0 43.7272 0 83.0243C0 122.322 60.1855 78.3087 83.5749 100.315C106.965 122.322 35.9604 128.609 26.7716 138.04C17.5828 147.472 -3.2959 187.122 31.7837 205.631C66.8637 224.141 128.684 166.334 185.488 205.631C242.292 244.929 268.927 218.206 280.718 205.631Z" fill="#0C8B93"/>
<path d="M288.313 61.864C288.313 62.2973 287.565 62.6485 286.642 62.6485C285.721 62.6485 284.973 62.2973 284.973 61.864C284.973 61.4308 285.721 61.0796 286.642 61.0796C287.565 61.0796 288.313 61.4308 288.313 61.864Z" fill="white"/>
<path d="M128.851 43.8211C128.851 44.2544 128.104 44.6056 127.182 44.6056C126.259 44.6056 125.512 44.2544 125.512 43.8211C125.512 43.3879 126.259 43.0366 127.182 43.0366C128.104 43.0366 128.851 43.3879 128.851 43.8211Z" fill="white"/>
<path d="M127.182 152.08C127.182 152.513 126.434 152.864 125.512 152.864C124.59 152.864 123.842 152.513 123.842 152.08C123.842 151.646 124.59 151.295 125.512 151.295C126.434 151.295 127.182 151.646 127.182 152.08Z" fill="white"/>
<path d="M230.706 119.131C230.706 119.565 229.958 119.916 229.037 119.916C228.114 119.916 227.366 119.565 227.366 119.131C227.366 118.698 228.114 118.347 229.037 118.347C229.958 118.347 230.706 118.698 230.706 119.131Z" fill="white"/>
<path d="M288.313 88.5365C288.313 88.9697 287.565 89.321 286.642 89.321C285.721 89.321 284.973 88.9697 284.973 88.5365C284.973 88.1032 285.721 87.752 286.642 87.752C287.565 87.752 288.313 88.1032 288.313 88.5365Z" fill="white"/>
<path d="M127.182 178.752C127.182 179.186 126.434 179.536 125.512 179.536C124.59 179.536 123.842 179.186 123.842 178.752C123.842 178.319 124.59 177.968 125.512 177.968C126.434 177.968 127.182 178.319 127.182 178.752Z" fill="white"/>
<path d="M294.157 167.77C294.157 168.636 293.409 169.339 292.486 169.339C291.565 169.339 290.817 168.636 290.817 167.77C290.817 166.903 291.565 166.2 292.486 166.2C293.409 166.2 294.157 166.903 294.157 167.77Z" fill="white"/>
<path d="M230.706 145.804C230.706 146.237 229.958 146.588 229.037 146.588C228.114 146.588 227.366 146.237 227.366 145.804C227.366 145.37 228.114 145.02 229.037 145.02C229.958 145.02 230.706 145.37 230.706 145.804Z" fill="white"/>
<path d="M218.183 103.442C218.183 104.309 217.435 105.011 216.514 105.011C215.591 105.011 214.843 104.309 214.843 103.442C214.843 102.576 215.591 101.874 216.514 101.874C217.435 101.874 218.183 102.576 218.183 103.442Z" fill="white"/>
<path d="M57.0516 84.6145C57.0516 85.0477 56.6778 85.399 56.2165 85.399C55.7552 85.399 55.3823 85.0477 55.3823 84.6145C55.3823 84.1813 55.7552 83.8301 56.2165 83.8301C56.6778 83.8301 57.0516 84.1813 57.0516 84.6145Z" fill="white"/>
<path d="M57.0515 193.658C57.0515 194.524 56.3038 195.226 55.3822 195.226C54.4596 195.226 53.7119 194.524 53.7119 193.658C53.7119 192.791 54.4596 192.089 55.3822 192.089C56.3038 192.089 57.0515 192.791 57.0515 193.658Z" fill="white"/>
<path d="M222.357 181.106C222.357 181.539 221.983 181.89 221.522 181.89C221.061 181.89 220.687 181.539 220.687 181.106C220.687 180.672 221.061 180.322 221.522 180.322C221.983 180.322 222.357 180.672 222.357 181.106Z" fill="white"/>
<path d="M158.907 159.925C158.907 160.358 158.533 160.709 158.071 160.709C157.61 160.709 157.237 160.358 157.237 159.925C157.237 159.492 157.61 159.14 158.071 159.14C158.533 159.14 158.907 159.492 158.907 159.925Z" fill="white"/>
<path d="M240.725 106.58C240.725 107.014 240.351 107.364 239.89 107.364C239.429 107.364 239.055 107.014 239.055 106.58C239.055 106.147 239.429 105.795 239.89 105.795C240.351 105.795 240.725 106.147 240.725 106.58Z" fill="white"/>
<path d="M82.9324 89.321C82.9324 90.1875 82.1857 90.8899 81.2631 90.8899C80.3405 90.8899 79.5928 90.1875 79.5928 89.321C79.5928 88.4544 80.3405 87.752 81.2631 87.752C82.1857 87.752 82.9324 88.4544 82.9324 89.321Z" fill="white"/>
<path d="M81.2634 197.579C81.2634 198.446 80.5157 199.149 79.5931 199.149C78.6716 199.149 77.9238 198.446 77.9238 197.579C77.9238 196.713 78.6716 196.01 79.5931 196.01C80.5157 196.01 81.2634 196.713 81.2634 197.579Z" fill="white"/>
<path d="M246.569 185.028C246.569 185.461 246.195 185.813 245.734 185.813C245.273 185.813 244.899 185.461 244.899 185.028C244.899 184.595 245.273 184.243 245.734 184.243C246.195 184.243 246.569 184.595 246.569 185.028Z" fill="white"/>
<path d="M222.357 46.5667C222.357 47.6499 221.423 48.5279 220.27 48.5279C219.117 48.5279 218.183 47.6499 218.183 46.5667C218.183 45.4836 219.117 44.6055 220.27 44.6055C221.423 44.6055 222.357 45.4836 222.357 46.5667Z" fill="white"/>
<path d="M62.896 28.5243C62.896 29.6074 61.9613 30.4854 60.8086 30.4854C59.6558 30.4854 58.7212 29.6074 58.7212 28.5243C58.7212 27.4411 59.6558 26.563 60.8086 26.563C61.9613 26.563 62.896 27.4411 62.896 28.5243Z" fill="white"/>
<path d="M61.2265 136.783C61.2265 137.865 60.2919 138.744 59.1392 138.744C57.9864 138.744 57.0518 137.865 57.0518 136.783C57.0518 135.699 57.9864 134.821 59.1392 134.821C60.2919 134.821 61.2265 135.699 61.2265 136.783Z" fill="white"/>
<path d="M142.127 171.261C141.765 171.917 140.89 172.182 140.172 171.852C139.452 171.523 139.162 170.724 139.523 170.069C139.884 169.412 140.759 169.148 141.479 169.477C142.198 169.807 142.488 170.605 142.127 171.261Z" fill="white"/>
<path d="M225.697 123.838C225.697 124.272 225.323 124.622 224.862 124.622C224.401 124.622 224.027 124.272 224.027 123.838C224.027 123.405 224.401 123.054 224.862 123.054C225.323 123.054 225.697 123.405 225.697 123.838Z" fill="white"/>
<path d="M136.366 181.106C136.366 181.539 135.992 181.89 135.53 181.89C135.069 181.89 134.695 181.539 134.695 181.106C134.695 180.672 135.069 180.322 135.53 180.322C135.992 180.322 136.366 180.672 136.366 181.106Z" fill="white"/>
<path d="M249.036 210.403C248.892 210.665 248.541 210.771 248.254 210.639C247.966 210.507 247.85 210.189 247.994 209.926C248.139 209.664 248.489 209.558 248.776 209.689C249.065 209.821 249.18 210.141 249.036 210.403Z" fill="white"/>
<path d="M162.246 102.658C162.246 103.091 161.873 103.442 161.411 103.442C160.95 103.442 160.576 103.091 160.576 102.658C160.576 102.224 160.95 101.874 161.411 101.874C161.873 101.874 162.246 102.224 162.246 102.658Z" fill="white"/>
<path d="M72.9149 159.925C72.9149 160.358 72.5411 160.709 72.0798 160.709C71.6185 160.709 71.2446 160.358 71.2446 159.925C71.2446 159.492 71.6185 159.14 72.0798 159.14C72.5411 159.14 72.9149 159.492 72.9149 159.925Z" fill="white"/>
<path d="M216.516 179.455C216.371 179.717 216.021 179.822 215.734 179.691C215.445 179.56 215.33 179.24 215.474 178.977C215.618 178.715 215.969 178.609 216.256 178.741C216.544 178.872 216.66 179.192 216.516 179.455Z" fill="white"/>
<path d="M256.587 39.114C256.587 39.5474 256.213 39.8986 255.753 39.8986C255.291 39.8986 254.917 39.5474 254.917 39.114C254.917 38.6808 255.291 38.3296 255.753 38.3296C256.213 38.3296 256.587 38.6808 256.587 39.114Z" fill="white"/>
<path d="M167.255 96.3815C167.255 96.8144 166.881 97.1659 166.42 97.1659C165.96 97.1659 165.586 96.8144 165.586 96.3815C165.586 95.9477 165.96 95.5972 166.42 95.5972C166.881 95.5972 167.255 95.9477 167.255 96.3815Z" fill="white"/>
<path d="M296.543 167.928C296.398 168.19 296.048 168.296 295.761 168.164C295.473 168.032 295.357 167.713 295.502 167.451C295.645 167.188 295.996 167.083 296.284 167.214C296.571 167.346 296.688 167.665 296.543 167.928Z" fill="white"/>
<path d="M97.1264 21.0711C97.1264 21.5044 96.7525 21.8556 96.2912 21.8556C95.8299 21.8556 95.4561 21.5044 95.4561 21.0711C95.4561 20.6379 95.8299 20.2866 96.2912 20.2866C96.7525 20.2866 97.1264 20.6379 97.1264 21.0711Z" fill="white"/>
<path d="M264.101 103.442C264.101 103.875 263.727 104.226 263.266 104.226C262.805 104.226 262.431 103.875 262.431 103.442C262.431 103.008 262.805 102.658 263.266 102.658C263.727 102.658 264.101 103.008 264.101 103.442Z" fill="white"/>
<path d="M174.769 160.709C174.769 161.142 174.396 161.493 173.934 161.493C173.473 161.493 173.099 161.142 173.099 160.709C173.099 160.276 173.473 159.924 173.934 159.924C174.396 159.924 174.769 160.276 174.769 160.709Z" fill="white"/>
<path d="M203.087 111.454C202.943 111.717 202.593 111.822 202.304 111.691C202.017 111.559 201.901 111.24 202.045 110.977C202.19 110.715 202.541 110.609 202.828 110.741C203.115 110.873 203.231 111.192 203.087 111.454Z" fill="white"/>
<path d="M95.456 129.33C95.456 129.764 95.0821 130.114 94.6208 130.114C94.1605 130.114 93.7866 129.764 93.7866 129.33C93.7866 128.897 94.1605 128.545 94.6208 128.545C95.0821 128.545 95.456 128.897 95.456 129.33Z" fill="white"/>
<path d="M262.431 211.701C262.431 212.134 262.057 212.485 261.597 212.485C261.136 212.485 260.762 212.134 260.762 211.701C260.762 211.267 261.136 210.917 261.597 210.917C262.057 210.917 262.431 211.267 262.431 211.701Z" fill="white"/>
<path d="M165.963 176.526C165.819 176.789 165.468 176.894 165.181 176.762C164.893 176.631 164.777 176.312 164.922 176.049C165.066 175.786 165.416 175.681 165.703 175.813C165.991 175.944 166.107 176.264 165.963 176.526Z" fill="white"/>
<path d="M332.938 258.897C332.794 259.159 332.443 259.265 332.156 259.134C331.869 259.002 331.752 258.682 331.897 258.42C332.041 258.158 332.391 258.052 332.679 258.184C332.967 258.315 333.083 258.634 332.938 258.897Z" fill="white"/>
<path d="M261.597 121.485C261.597 121.918 261.223 122.269 260.761 122.269C260.3 122.269 259.926 121.918 259.926 121.485C259.926 121.051 260.3 120.701 260.761 120.701C261.223 120.701 261.597 121.051 261.597 121.485Z" fill="white"/>
<path d="M61.2264 303.485C61.2264 303.918 60.8526 304.269 60.3913 304.269C59.93 304.269 59.5562 303.918 59.5562 303.485C59.5562 303.052 59.93 302.7 60.3913 302.7C60.8526 302.7 61.2264 303.052 61.2264 303.485Z" fill="white"/>
<path d="M62.896 167.663C62.896 168.745 61.9613 169.624 60.8086 169.624C59.6558 169.624 58.7212 168.745 58.7212 167.663C58.7212 166.579 59.6558 165.701 60.8086 165.701C61.9613 165.701 62.896 166.579 62.896 167.663Z" fill="white"/>
<path d="M185.711 34.3192V364.086C185.711 364.086 192.955 371.419 207.146 370.631C221.337 369.845 225.488 364.086 225.488 364.086L201.209 36.1968C201.209 36.1968 201.035 30.3858 193.373 30.3857C185.711 30.3857 185.711 34.3192 185.711 34.3192Z" fill="#181818"/>
<path d="M185.711 34.3192V364.086C185.711 364.086 192.955 371.419 207.146 370.631C221.337 369.845 225.488 364.086 225.488 364.086L201.209 36.1968C201.209 36.1968 201.035 30.3858 193.373 30.3857C185.711 30.3857 185.711 34.3192 185.711 34.3192Z" fill="url(#paint0_linear)" fill-opacity="0.5"/>
<path d="M227.126 63.0594L228.073 57.873L108.984 61.8641L108.159 75.0313L227.126 63.0594Z" fill="#171717"/>
<path d="M227.126 63.0594L228.073 57.873L108.984 61.8641L108.159 75.0313L227.126 63.0594Z" fill="url(#paint1_linear)" fill-opacity="0.5"/>
<path d="M119.874 93.5539L117.323 88.8735L232.203 59.0361L237.179 71.3646L119.874 93.5539Z" fill="#222222"/>
<path d="M119.874 93.5539L117.323 88.8735L232.203 59.0361L237.179 71.3646L119.874 93.5539Z" fill="url(#paint2_linear)" fill-opacity="0.5"/>
<path d="M133.878 77.8628L183.245 387.415L32.1069 380.894L133.878 77.8628Z" fill="url(#paint3_linear)" fill-opacity="0.63"/>
<defs>
<linearGradient id="paint0_linear" x1="129.933" y1="265.608" x2="194.561" y2="225.368" gradientUnits="userSpaceOnUse">
<stop stop-color="#7B7B7B"/>
<stop offset="1" stop-color="#FCEFEF" stop-opacity="0"/>
</linearGradient>
<linearGradient id="paint1_linear" x1="167.064" y1="28.477" x2="163.936" y2="74.4282" gradientUnits="userSpaceOnUse">
<stop stop-color="white"/>
<stop offset="1" stop-color="white" stop-opacity="0"/>
</linearGradient>
<linearGradient id="paint2_linear" x1="166.175" y1="43.5933" x2="182.377" y2="87.0684" gradientUnits="userSpaceOnUse">
<stop stop-color="white"/>
<stop offset="1" stop-color="white" stop-opacity="0"/>
</linearGradient>
<linearGradient id="paint3_linear" x1="107.676" y1="77.8628" x2="107.881" y2="329.303" gradientUnits="userSpaceOnUse">
<stop stop-color="white"/>
<stop offset="1" stop-color="white" stop-opacity="0"/>
</linearGradient>
</defs>
</svg>
